<?xml version="1.0" standalone="no"?>
<!DOCTYPE svg PUBLIC "-//W3C//DTD SVG 20010904//EN"
 "http://www.w3.org/TR/2001/REC-SVG-20010904/DTD/svg10.dtd">
<svg version="1.0" xmlns="http://www.w3.org/2000/svg"
 width="700.000000pt" height="700.000000pt" viewBox="0 0 700.000000 700.000000"
 preserveAspectRatio="xMidYMid meet">
<metadata>
Created by potrace 1.11, written by Peter Selinger 2001-2013
</metadata>
<g transform="translate(0.000000,700.000000) scale(0.100000,-0.100000)"
fill="#000000" stroke="none">
<path d="M2525 5716 c-3 -9 -40 -240 -50 -311 -2 -11 -7 -49 -13 -85 -6 -36
-13 -81 -16 -100 -3 -19 -14 -91 -25 -160 -11 -69 -23 -147 -26 -175 -4 -27
-8 -57 -10 -65 -3 -8 -7 -35 -10 -60 -3 -25 -8 -56 -10 -70 -2 -14 -7 -41 -10
-60 -3 -19 -8 -46 -10 -60 -3 -14 -8 -45 -11 -70 -9 -66 -26 -179 -29 -190 -1
-3 -5 -30 -9 -60 -5 -30 -10 -64 -12 -75 -2 -11 -7 -40 -10 -65 -3 -25 -7 -52
-9 -60 -2 -8 -7 -37 -10 -65 -4 -27 -8 -57 -10 -65 -3 -8 -7 -37 -10 -65 -3
-27 -8 -57 -10 -65 -2 -8 -7 -35 -10 -60 -7 -48 -12 -81 -20 -119 -2 -14 -7
-45 -10 -70 -3 -25 -16 -113 -30 -196 -14 -82 -29 -177 -32 -210 -55 -494 176
-980 592 -1247 511 -329 1176 -269 1614 147 203 192 332 428 392 715 20 95 18
390 -3 510 -15 82 -41 240 -53 320 -2 14 -9 54 -14 90 -6 36 -13 83 -16 105
-4 22 -8 51 -11 65 -2 14 -6 43 -9 65 -3 22 -7 51 -10 65 -3 13 -7 42 -10 65
-4 22 -8 54 -11 70 -3 17 -7 45 -10 64 -2 19 -6 46 -9 60 -2 14 -11 71 -20
126 -8 55 -22 141 -30 190 -8 50 -17 108 -21 130 -3 22 -7 51 -9 65 -10 62
-67 431 -75 480 -29 195 -71 459 -76 481 -4 20 -10 26 -27 24 -28 -4 -215 -34
-243 -40 -20 -4 -20 -7 -8 -82 6 -43 14 -94 17 -113 5 -37 25 -164 58 -375 25
-156 25 -158 33 -215 3 -25 11 -71 16 -102 20 -115 29 -174 35 -218 3 -25 12
-83 20 -130 8 -47 17 -105 20 -130 3 -25 8 -52 10 -60 2 -8 6 -37 10 -65 3
-27 8 -57 10 -65 2 -8 6 -33 10 -55 3 -22 8 -56 12 -75 l6 -35 -34 27 c-337
269 -720 364 -1124 282 -195 -40 -409 -142 -559 -267 l-48 -41 6 45 c3 24 8
55 10 69 3 14 7 43 11 65 3 22 10 65 15 95 5 30 12 75 15 100 3 25 8 58 11 74
5 29 78 494 89 571 4 22 8 51 11 65 2 14 7 43 9 65 3 22 16 108 30 190 13 83
27 173 30 200 4 28 10 64 14 80 14 55 8 98 -14 101 -170 30 -257 40 -260 30z
m1110 -1730 c494 -106 832 -543 809 -1048 -18 -390 -268 -744 -631 -891 -132
-53 -226 -70 -388 -70 -129 0 -163 4 -248 26 -175 47 -366 156 -478 274 -129
136 -221 307 -266 495 -24 101 -24 335 0 437 76 318 284 575 570 706 72 32
165 63 222 72 17 3 53 9 80 14 69 11 245 3 330 -15z"/>
</g>
</svg>
